<?xml version="1.0" encoding="UTF-8"?>
<svg id="Layer_1" xmlns="http://www.w3.org/2000/svg" version="1.1" viewBox="0 0 100 100">
  <!-- Generator: Adobe Illustrator 29.7.1, SVG Export Plug-In . SVG Version: 2.1.1 Build 8)  -->
  <g id="Layer_11" data-name="Layer_1">
    <g>
      <rect width="100" height="100"/>
      <g>
        <path d="M55.3,31.55s-.15,0-.16.05c.08,0,.14-.01.16-.05Z" fill="none"/>
        <path d="M55.36,23.73c-.3.41-.54.09-.84.5.16.58,1.31-.11.84-.5Z" fill="none"/>
        <path d="M55.23,31.76h.11c.02-.09-.14-.08-.11,0Z" fill="none"/>
        <path d="M55.33,31.55c.09-.02.09.03.11.06.12-.05.22.03.36.03,0-.06.03-.11.08-.14-.15.04-.4-.07-.55.04h0Z" fill="none"/>
        <path d="M19.11,27.92c.06-.03.15-.03.16-.09-.09,0-.17,0-.19.05.02,0,.03.02.03.04Z" fill="#fff"/>
        <path d="M69.16,32.35c-.05.18-.09.36-.14.54.31.08.62.17.93.25-.04-.55-.57-.57-.79-.78h0Z" fill="none"/>
        <path d="M64.16,19.94c-.22-.07-.47-.08-.75-.07.28.03.55.06.82.09-.04-.04-.06-.1-.07-.02Z" fill="none"/>
        <path d="M70.34,23.07c-.5-.21-.47.49-.84.49.25.38.62-.22.84-.49Z" fill="none"/>
        <path d="M20.49,27.17c.14,0,.14-.03.25,0,.01-.11-.22-.04-.25,0Z" fill="#fff"/>
        <path d="M17.97,28.58c.02.06-.05.05-.05.09.02.02.18.04.19,0-.02,0-.03-.02-.03-.04.03,0,.08,0,.08-.02-.1.02-.11-.03-.19-.02h0Z" fill="#fff"/>
        <polygon points="37.78 25.9 37.78 25.9 37.77 25.9 37.78 25.9" fill="#fff"/>
        <path d="M70.57,74.98c-.06.15-.08.39-.24.37-.15-.03-.16-.25-.27-.07.34.04.17.94.56.58-.39-.32.36-.25.31-.63-.19-.04-.28-.14-.36-.24h0Z" fill="none"/>
        <path d="M64.06,55.34c.07-.27.41-.07.41-.46-.71-.03-.59-.61-1.19-.89-.06.22-.12.45-.18.67.3.24.91.3.96.69h0Z" fill="none"/>
        <path d="M70.4,61.62c-.06-.27.19-.72-.22-.78-.34.2-.05.61.22.78Z" fill="none"/>
        <path d="M69.18,78.05c.24.05.41.14.5.28-.15-.79.41-1,.4-2.04-.4.81-.6,1.08-.9,1.77h0Z" fill="none"/>
        <path d="M70.35,78.5c.14.07.17.2.2.34-.04.19-.14.28-.24.37.37.12.47-.22.58-.56-.07-.06-.43-.47-.53-.14h-.01Z" fill="none"/>
        <path d="M66.73,71.67c-.48.88.43,1.52,0,0h0Z" fill="none"/>
        <path d="M69.59,56.9c.25-.11-.36-.84-.52-.61-.16.16.06,1.1.52.61Z" fill="none"/>
        <path d="M69.99,70.68c.07-.38.14-1.35-.28-1.08.37.2-.15.92.28,1.08Z" fill="none"/>
        <path d="M63.85,65.31c.04.51-.07,1.09.18,1.48.38-.12.7-.36.92-.76-.36-.24-.94-.36-1.09-.72h0Z" fill="none"/>
        <path d="M60.39,53.04c-.37.31-.5,1.64.12.81-.81.08.6-.5-.12-.81Z" fill="none"/>
        <path d="M59.15,55.38c.55-.71.33-1.49.27-2.07-.07.6-.55.75-.71,1.25.51,0-.03.8.25,1.3-.2-.02-.21-.22-.47-.19.16.52.18,1.16.73,1.32.3-.59.49-1.18-.08-1.61h.01Z" fill="none"/>
        <path d="M59.99,54.62c.09.58-.55,1.07.09,1.29,0-.47.52-1.11-.09-1.29Z" fill="none"/>
        <path d="M62.69,59.99c.45.3.71.38,1,.55.14-.38-.13-.53-.22-.78-.34-.08-.53.12-.77.22h0Z" fill="none"/>
        <path d="M61.95,64.95c-.04.13-.07.27-.11.4.22.11.39-.11.4.11-.21-.02-.08.21.06.3.03-.27.25-.22.37-.33-.21-.18-.24-.46-.73-.48h0Z" fill="none"/>
        <path d="M69.45,57.14c-.16.16.06,1.1.52.61.25-.11-.36-.84-.52-.61Z" fill="none"/>
        <path d="M84.2,79.05c.02-.09.05-.18.07-.27-.1-.03-.13-.1-.18-.16-.06-.14-.16-.24-.29-.27-.07-.11-.14-.21-.21-.31.04-.1.06-.21.04-.31-.05.08-.11.12-.15.14-.1-.13-.19-.26-.28-.39-.01.15-.04.25-.07.32-.09-.05-.19-.09-.29-.03,0,.07.02.13.04.2-.19-.04-.4-.28-.45-.26-.15.04-.23.21-.33.35-.01,0-.03,0-.04.01v.04c-.12.15-.27.22-.57-.08-.33.4.41.72-.08.84-.34-.11-.15-.52-.05-.87-.18-.05-.36-.1-.53-.14-.11.46-.35.69-.65.83.8.25-.5.48-.04.7.37-.19,1.28-.68,1.44-.05.52-.22-.28-.93.38-.9.22.06-.02.39.16.47.1-.04.17-.13.25-.22.03.03.06.06.09.1.16-.12.27-.24.34-.37.05.14-.19.45.13.44.03.06.04.13.03.19-.17-.02-.33-.22-.52-.12.02.23.12.46.39.72.11-.08.18-.16.25-.24.03,0,.07.02.12.02.33-.22.13-.73-.17-.77-.03-.15-.21-.21-.18-.39,0-.01,0-.02.01-.04,0-.03.02-.06.04-.1h.04c.06.12.16.25.3.38.08-.06.14-.12.2-.18.05.06.11.1.17.12.09.09.12.18.12.27-.12.02-.22.07-.22.29.12.07.2.08.27.07.04.02.09.04.19.05.05-.03.08-.07.11-.11.04,0,.08.01.13.03h0Z" fill="none"/>
        <path d="M84.15,79.75c-.39.59.35,1.33.56.58-.53,0-.36-.4-.56-.58Z" fill="none"/>
        <path d="M83.15,79.56c.38.33-.15.68.39.72.42-.27,0-1.01-.39-.72Z" fill="none"/>
        <path d="M80.67,77.82c.1-.07.41-.9-.02-1.01.01.41-.28.3-.31.63.18.08.17.28.33.37h0Z" fill="none"/>
        <path d="M76.92,77.96c-.05.3-.22.4-.51.29.05-.21-.25-.54-.27-.07.88.72-.84,1.53-.64,2.41.23.07.42.08.57,0-.28-.69.45-.4.39-1.47.33.04.37-.4.77-.22.06-.41-.06-.72-.32-.94h.01Z" fill="none"/>
        <path d="M71.91,74.77c-.16.46-.41-.47-.57,0,.15.06.09.25.03.44.29.15.89-.12.54-.43h0Z" fill="none"/>
        <path d="M74.1,69.19c-.27.38-.94.06-1.05.72.33.07.65.15.76.35.11-.38.82-.73.28-1.07h.01Z" fill="none"/>
        <path d="M73.34,70.99c.02-.46-.32-.72-.59-1.02-.32.64.47.63.59,1.02Z" fill="none"/>
        <path d="M78.67,74.57c-.23.47.23.55.36.81.24-.48-.15-.59-.36-.81Z" fill="none"/>
        <path d="M71.73,73.29c-.44-.01-.16-.44-.6-.45-.13.48.29.79.6.45Z" fill="none"/>
        <path d="M82.89,76.98c-.07.4-.37.39-.58.56.18.05.36.09.53.14-.02-.21.34-.65.04-.7h.01Z" fill="none"/>
        <path d="M72.36,28.91c.19-.22.88-.43.35-.77-.52.66.07-.31-.37-.24-.13.42-.22.81.02,1.01Z" fill="none"/>
        <path d="M41.13,31.17h0Z" fill="#ce2027"/>
        <path d="M76.3,47.43c.19-.31.72-.05.84-.49-.83.03-1.34-.14-1.6-.43.25.31.12.83.76.92Z" fill="none"/>
        <path d="M74.61,45.1c-.56-.17-.9-.99-.93-.62,0,.3.09.61.42.97.17-.12.34-.24.51-.35Z" fill="none"/>
        <path d="M80.9,37.63c-.06.22-.12.45-.18.67.13.04.27.07.4.11.25-.14.2-.69-.22-.78Z" fill="none"/>
        <path d="M32.81,19.64c-.05-.09.15,0,.11-.09-.06,0-.11,0-.14.03,0,.03,0,.06.03.07h0Z" fill="#ce2027"/>
        <path d="M39.6,19.98c.07,0,.12-.01.11-.07-.07,0-.12.01-.11.07Z" fill="#ce2027"/>
        <path d="M39.27,19.94c.11.02.21.03.25-.05-.1,0-.22,0-.25.05Z" fill="#ce2027"/>
        <path d="M33.27,19.52s-.02-.02-.02-.03c0,.03,0,.04.02.03Z" fill="#ce2027"/>
        <path d="M39.43,19.8c-.04-.09-.27-.07-.33-.01.07.04.22,0,.33.01Z" fill="#ce2027"/>
        <path d="M39.65,19.75c-.07,0-.13.02-.16.05.04.03.19.03.16-.05Z" fill="#ce2027"/>
        <path d="M38.01,19.78s-.12.05-.03.07c.02-.07.09.01.14,0v-.09c-.15-.08-.27.02-.36.1.14.03.18-.13.25-.07h0Z" fill="#ce2027"/>
        <path d="M37.65,19.75s-.03-.07-.11-.04v.07s.1,0,.11-.03Z" fill="#ce2027"/>
        <path d="M35.19,20.12c-.16.08-.21-.03-.36.03.04.05.37.08.36-.03Z" fill="#ce2027"/>
        <path d="M29.33,19.38c-.06.02-.22-.03-.19.05.08,0,.19.01.19-.05Z" fill="#ce2027"/>
        <path d="M29.12,21.2s-.05.02-.05.05c.03.02.15.08.2.02-.07-.01-.09,0-.14-.06h-.01Z" fill="#ce2027"/>
        <path d="M27.63,21.38c.02-.07.07.03.14,0,.04-.09-.27-.03-.14,0Z" fill="#ce2027"/>
        <path d="M28.04,21.37c.02-.08-.24-.05-.22,0,.12,0,.14-.03.22,0Z" fill="#ce2027"/>
        <path d="M28.24,21.37c.08-.02.19-.01.25-.05-.07,0-.22,0-.25.05Z" fill="#ce2027"/>
        <path d="M29.24,20.64c0,.08-.14.05-.19.1.06.05.27-.05.19-.1Z" fill="#ce2027"/>
        <path d="M29.61,19.48s.08-.01.08-.05c-.04.01-.1-.08-.03-.09.05.03.06-.03.13-.08-.13.06-.37.05-.4.13.1-.06.26,0,.23.08h0Z" fill="#ce2027"/>
        <path d="M30.73,21.2c-.07,0-.09.04-.11-.02.02,0,.03-.02,0-.02-.01.03-.03.05-.05.07,0-.01,0-.03-.03-.02-.01.07.06.07.14.06-.06-.07.16-.04.05-.07Z" fill="#ce2027"/>
        <path d="M30.3,19.41c.12,0,.14-.06.22-.1.08.02.11.07.17.11.11-.06.3.01.5-.04-.13.02-.17-.06-.23-.1-.1.06-.17,0-.25.07,0-.04-.02-.05-.06-.02,0-.06,0-.11-.06-.11-.06.06-.18.08-.24.14-.03-.03-.05-.07-.09-.09,0,.03-.01.05-.03.07.05,0,.07.02.06.06h.01Z" fill="#ce2027"/>
        <path d="M30.33,21.61c.11,0,.2.01.28.04-.02-.06-.23-.08-.28-.04Z" fill="#ce2027"/>
        <path d="M31.38,21.53s0,.07.03.09c.07-.02.13-.04.22-.03,0-.04,0-.07.02-.09-.08.04-.19.12-.28.03h.01Z" fill="#ce2027"/>
        <path d="M24.71,23.57c.06,0,.08.04.11.06-.01-.06.15.01.14-.05-.1.02-.22-.06-.25-.01Z" fill="#ce2027"/>
        <path d="M24.29,23.4c.07-.09.22.07.28,0-.09-.02-.19-.04-.28-.06.01.04-.04.06,0,.07h0Z" fill="#ce2027"/>
        <path d="M24.18,24.05c.07-.13.52-.06.11-.11-.05.03-.11.05-.11.11Z" fill="#ce2027"/>
        <path d="M24.26,22.03c.09,0,.22.08.31.01-.1.02-.34-.06-.31-.01Z" fill="#ce2027"/>
        <path d="M25.34,23.32s-.16,0-.19.03c.06-.01.18.02.19-.03Z" fill="#ce2027"/>
        <path d="M25.56,19.56h.08s-.03-.05-.03-.09c-.05,0-.09.02-.11.05.08,0,.1,0,.06.04Z" fill="#ce2027"/>
        <path d="M27.1,20.74s-.18-.04-.19,0c.07-.02.15.06.19,0Z" fill="#ce2027"/>
        <path d="M26.75,21.7h.14c.01-.1-.15-.07-.14,0Z" fill="#ce2027"/>
        <path d="M27.47,21.61c-.09,0-.15.01-.19.05.06-.02.22.03.19-.05Z" fill="#ce2027"/>
        <path d="M24.36,19.56s-.15.01-.17-.04c.17-.08.3.07.47.05,0-.03,0-.06.03-.07.03.03.05.07.09.09.18-.06.55.02.69-.11-.05-.03-.21,0-.11-.09-.14,0-.01.07-.08.09,0-.02-.02-.03-.06-.02.04-.1-.18-.01-.28-.06-.07.03.05.07-.02.09-.07-.07-.18-.08-.17,0,.01-.03-.22.02-.14-.06-.3.02-.27-.02-.5.02.03.08,0,.05.03.13.11-.05.15.02.22-.03h0Z" fill="#ce2027"/>
        <path d="M36.88,20v.04s.04.03.07.05c0-.03.14-.05.05-.07-.06.04-.09.01-.11-.02h0Z" fill="#ce2027"/>
        <path d="M47.13,19.4c-.06-.04-.09-.14-.09-.11-.07.03.02.12.09.11Z" fill="#ce2027"/>
        <path d="M48.72,19.35c.11,0,.2.05.25-.03-.06-.02-.19-.04-.12-.11-.06.06-.29-.04-.25,0,.07.03.24.07.12.13h0Z" fill="#ce2027"/>
        <path d="M48.88,17.06s.02-.03.11-.14c-.12.02-.24.05-.24.16.04-.01.14.02.14-.03h0Z" fill="#ce2027"/>
        <path d="M36.87,19.64h0s.02.02.02.03c.06,0,.12,0,.13.03-.05.02-.08.04-.11.05v.04s.06-.05.13-.05c-.02.06-.08.09-.11.14.1,0,.07-.09.16-.09.03.04-.08.08,0,.09.05-.07.15.03.2.04-.02-.13.14,0,.19-.07-.08.03-.16-.06-.09-.09.07.07.12.02.22.06,0,.02.02.03.03.04-.13,0-.11.12-.03.02.17.02.36.04.47.05-.03,0-.06-.02-.08-.04.17-.01.14.08.17-.03.12,0,.1.1.17.13-.03-.08.12-.02.11-.09-.05,0-.17.04-.14-.04.18,0,.2,0,.36-.03,0,.04.03.05.03.09-.08-.03-.2-.03-.22.05.16.02.24-.03.33-.1.07.07.17.02.17-.03.08.03.04.08,0,.13.16-.03.22-.03.33.03-.04,0-.03.05-.05.07.11-.06.13-.03.22.01.09-.08.45-.15.64-.06.11-.09.21-.07.47-.1.04-.1-.17,0-.17-.06.03-.07.22-.14.3-.05,0,.05-.13,0-.08.07.31-.08-.06-.21-.2-.24.06,0,.03-.06.11-.05.12.04.27.04.36-.06.06.01.06.03.03.07.32-.08.57-.03.86-.16-.07.09.28.05.19-.03.38.05.97,0,1.3-.15-.14.04-.39-.04-.5.06.06-.1-.12-.01-.14.03v-.07c-1.19.05-2.51.14-3.55.14-.11.08-.49-.02-.61.15-.15-.04-.21-.06-.36-.01.06-.13-.17,0-.14-.11-.13.05-.28-.05-.33.03.17.02.28-.05.34.06-.16-.02-.33.04-.45-.05-.13.03-.37.12-.47.04,0,.1-.15-.02-.22.05,0,.04.04.06,0,.07h.02,0ZM39.27,19.94c.03-.06.15-.05.25-.05-.04.08-.14.07-.25.05ZM39.6,19.98c0-.06.04-.07.11-.07,0,.06-.04.07-.11.07ZM40.04,19.94c-.03-.06.08-.11,0-.13.13,0,.16.02.36.03-.05.09-.19.11-.36.1ZM40.14,19.67c-.03.1-.16.07-.22.03-.04-.02.12-.01.22-.03ZM39.99,19.88c-.1-.06-.19-.09-.31-.08.05-.15.36,0,.31.08ZM39.65,19.75c.03.08-.12.08-.16.05.03-.03.09-.04.16-.05ZM39.43,19.8c-.11,0-.27.03-.33-.01.06-.06.3-.08.33.01ZM38.12,19.76v.09s-.12-.06-.14,0c-.09-.02.03-.04.03-.07-.07-.05-.11.11-.25.07.09-.08.21-.19.36-.1h0ZM37.65,19.75s-.07.02-.11.03v-.07c.09-.03.07.03.11.04Z" fill="#ce2027"/>
        <path d="M47.66,19.36c.03-.08-.07-.15-.11-.09.03.01.06.02.09.04-.02.04-.13,0-.14.05.05.04.07-.02.17,0h0Z" fill="#ce2027"/>
        <path d="M55.43,19.04c.13-.05.2.07.25.01-.04-.02-.1-.02-.11-.06.13-.01.33.11.28,0-.05.05-.17-.02-.2-.06-.03.05-.3.13-.22.12h0Z" fill="#ce2027"/>
        <path d="M55.82,19.23c.07,0,.17.02.14-.07-.06,0-.12.03-.14.07Z" fill="#ce2027"/>
        <path d="M36.55,19.83v-.03s-.17-.03-.13.03h.13Z" fill="#ce2027"/>
        <path d="M52.23,18.99s.07.03.08,0c-.1-.04.11-.03.11-.07-.06-.02-.24,0-.22.03.12,0,.07,0,.03.04Z" fill="#ce2027"/>
        <path d="M53.27,19.29s-.07,0-.06-.04c-.12.02-.24.02-.25.07.1-.05.24,0,.3-.03,0,0,0,0,.01,0Z" fill="#ce2027"/>
        <path d="M33.87,19.72c.08,0,.08-.09.05-.11h-.08s.05.05.03.11Z" fill="#ce2027"/>
        <path d="M31.48,21.13c-.11.05-.55.16-.58.02-.03.03-.07.05-.08.09.19.06.48.15.61.02-.02,0-.05,0-.06-.02.08,0,.1-.07.22-.05,0-.06-.06-.06-.11-.06Z" fill="#ce2027"/>
        <path d="M31.21,20.58c.07,0,.13-.02.16-.05-.05-.04-.14,0-.16.05Z" fill="#ce2027"/>
        <path d="M31.73,19.72c.07,0,.08-.04.17-.03-.01.03-.04.06-.05.09.42-.12,1.06.07,1.5-.11.15.14.33-.11.42.03-.02-.07-.02-.04,0-.11-.17.08-.43.03-.48-.07,0,.01,0,0-.02-.03,0,0,0,.02.02.03.02-.02.05-.13.12-.05.04-.05-.07-.08,0-.09.05.03.1.07.14.11.06,0,.11-.03.16-.05,0,.03,0,.06.03.07-.03-.13.14-.04.19-.03-.05-.08-.21-.06-.26-.15-.02.08-.05.01-.14.03,0-.03,0-.06-.03-.07-.02.02-.13-.04-.19.03.06.01.06.03.03.07-.14-.03-.3.04-.45-.05,0,.12-.11.07-.22.05,0,.03,0,.08-.02.09-.06,0-.06-.06-.09-.09.05,0,.16-.05.08-.07,0,.06-.19-.01-.19.05.06,0,.09.02.09.06-.07-.05-.06.05-.17.03,0,.06,0,.12-.05.16-.07-.11-.15.05-.25.05-.08-.05-.15-.1-.17-.19-.09.02-.11,0-.14.03.06,0,.06.06.09.09-.17.05-.23.03-.42.01-.03.06-.09.1-.16.07.09.06.4-.07.47.05h-.01ZM32.92,19.55c.05.09-.15,0-.11.09-.03,0-.03-.04-.03-.07.03-.02.07-.03.14-.03h0Z" fill="#ce2027"/>
        <path d="M32.01,21.13c-.19-.08-.37.09-.58.13.15.05.49,0,.61-.06-.08,0-.19.02-.2-.04.05-.01.16.02.17-.03Z" fill="#ce2027"/>
        <path d="M56.32,19.24c0-.1.12-.2.02-.27,0,.04-.04.05-.05.07.08.05.06.18-.1.16-.03.08.09.03.14.04h-.01Z" fill="#ce2027"/>
        <path d="M35.97,20.16c.19-.03.27-.18.48-.11,0-.03,0-.06.03-.09-.15.04-.27-.02-.4.03.05.02-.05.11-.14.09,0,.03,0,.06.03.07h0Z" fill="#ce2027"/>
        <path d="M37.19,20.01s-.06-.03-.06-.06c-.08.03-.09,0-.17-.02,0,.07.22.09.23.08Z" fill="#ce2027"/>
        <path d="M36.59,19.74h0s.04-.06.06-.09c-.05,0-.09-.01-.12.01.03,0,.07,0,.06.04-.08.02-.08-.04-.17-.02,0,.07.12.03.17.06Z" fill="#ce2027"/>
        <path d="M36.34,19.73c-.14-.08.07-.11,0-.18,0,.08-.11.08-.13.14.1-.04.06.06.14.04h0Z" fill="#ce2027"/>
        <path d="M59.34,19.1c-.03-.06-.15-.08-.22-.06.02.05.12.08.06.13.15.01.24-.03.33-.06-.09-.07.08-.08.02-.11-.03.03-.13.03-.17,0-.03.06.02.07-.02.09h0Z" fill="#ce2027"/>
        <path d="M56.82,19.13c.06-.02-.06-.09-.03-.15h.11v.11c.09-.07.25-.05.19-.14.04.03.11.01.14-.03-.21-.02-.27.06-.44.01,0,.03,0,.05-.05.05.08.06,0,.14.09.15h-.01Z" fill="#ce2027"/>
        <path d="M53.9,31.78s-.18,0-.22.05c.07.02.2.03.22-.05Z" fill="#ce2027"/>
        <path d="M51.94,31.35v.07h.17c.02-.09-.15-.01-.17-.06h0Z" fill="#ce2027"/>
        <path d="M50.1,31.3s-.13,0-.17-.04c0,.09.11.1.17.04Z" fill="#ce2027"/>
        <path d="M31.4,30.5s.04-.02.05-.04h-.05v.04Z" fill="#ce2027"/>
        <path d="M16.81,28.04c.1,0,.11-.03.19,0,0-.09-.19-.03-.19,0Z" fill="#ce2027"/>
        <path d="M34.14,30.15c-.1,0-.1.09-.16.12.08,0,.1.03.06.06.04,0,.1,0,.11-.03-.04-.02-.09-.03-.11-.06.03-.03.15,0,.11-.09h-.01Z" fill="#ce2027"/>
        <path d="M32.81,30.26s-.02-.03-.06-.02c0,.13.39-.04.39-.06-.07.05-.27,0-.33.05.02,0,.03.02,0,.02h0Z" fill="#ce2027"/>
        <path d="M31.91,30.02c.1-.01.21-.01.25-.07-.09.02-.27-.07-.22-.01.11.02,0,.06-.02.09h-.01Z" fill="#ce2027"/>
        <path d="M33.43,30.42c-.07-.04-.26-.07-.23-.13.14-.01.48.03.53-.04-.19,0-.61,0-.8.09.14.01.15,0,.31.01.07.14.6.07.69,0-.21.02-.51,0-.5.06h0Z" fill="#ce2027"/>
        <path d="M31.2,29.69c.17-.02.26,0,.33-.06-.12.01-.29-.02-.33.06Z" fill="#ce2027"/>
        <path d="M23.11,29.3c.12-.04.08.07.17.06.03-.08-.13-.11-.17-.06Z" fill="#ce2027"/>
        <path d="M31.83,30.02c0-.07-.12-.05-.14-.11-.2.17-.6.03-.83.14.1,0,.31.05.39-.03.21.08.31-.05.58,0Z" fill="#ce2027"/>
        <path d="M30.55,30.06c.07,0,.11-.01.14-.05-.08,0,.04-.04.03-.07-.08.02-.13.06-.16.12,0,0-.01,0-.01,0Z" fill="#ce2027"/>
        <path d="M43.55,32.1s.03.02,0,.02c-.02,0-.05,0-.05.02.08,0,.18,0,.16-.07-.04,0-.1,0-.11.03Z" fill="#ce2027"/>
        <path d="M42.47,32.13v.07s.06.02.11.02c0-.07-.07-.06-.11-.09Z" fill="#ce2027"/>
        <path d="M43.87,31.66v.09c.07-.02.19,0,.19-.07-.07,0-.16.01-.2-.02h.01Z" fill="#ce2027"/>
        <path d="M60.77,19.34s.19.05.17-.03c-.09.03-.12-.01-.17.03Z" fill="#ce2027"/>
        <path d="M62.72,18.76c-.03-.18.06-.25.21-.3,0,.11.16.07.2.15,0-.1.1-.06.08-.11.02.03.05.05.09.06,0-.11.17-.08.27-.1,0-.08-.03-.06,0-.13-.13-.07-.41-.06-.5-.09-.25.13-.62-.17-.95-.1-.22.05-.33.25-.23.52.17.14.55.26.84.11h-.01Z" fill="#ce2027"/>
        <path d="M63.41,19.41v.04s-.03,0-.03.02c.07.01.16,0,.28.01,0,.03,0,.08.06.06.02-.16-.27-.05-.31-.15,0,0,0,.02,0,.02Z" fill="#ce2027"/>
        <path d="M60.62,18.97c-.07,0-.08.04-.14,0-.02.09.17.08.14,0Z" fill="#ce2027"/>
        <path d="M67.78,19.53c-.07.06.2.08.25.04-.05-.07-.07-.15-.15-.2-.02.05-.01.12-.08.14-.03-.03-.29-.05-.28.03.08.02.16,0,.25,0h.01Z" fill="#ce2027"/>
        <path d="M60.22,18.78c-.09.01-.33.03-.3.05.12,0,.24-.01.3-.05Z" fill="#ce2027"/>
        <path d="M64.11,18.19c.05-.08.1-.03.14-.09-.05,0-.07-.01-.08-.04.09-.03.09,0,.19,0,0-.04-.03-.05-.03-.09.1.03.16-.05.22-.07-.08,0-.09-.05-.17-.04-.07.09-.15.07-.33.1.01.04-.04.05-.05.07.07,0,.1.04.14.06-.02.01-.08.11-.02.11h-.01Z" fill="#ce2027"/>
        <path d="M66.86,20.08c.02-.11-.09-.09-.14-.04.09-.02.06.06.14.04Z" fill="#ce2027"/>
        <path d="M58.03,18.05s-.19,0-.14-.11c-.2.02.08.18.14.11Z" fill="#ce2027"/>
        <path d="M24.12,22.61s-.16-.09-.14,0c.07-.03.12.06.14,0Z" fill="#ce2027"/>
        <path d="M58.71,19.09c-.06.06-.16.08-.22.14.13-.01.2-.01.22-.14Z" fill="#ce2027"/>
        <path d="M58.45,18.9s0,.02-.03.05c.2-.03.31-.03.47-.06-.14-.03-.33-.05-.44.01Z" fill="#ce2027"/>
        <path d="M59.18,19.21s-.06-.02-.09-.04c-.31.05.02.05.09.04Z" fill="#ce2027"/>
        <path d="M59.25,18.81c-.06.02-.16-.03-.19.05.13-.03.19,0,.3-.05-.14-.12,0-.03-.11,0Z" fill="#ce2027"/>
        <path d="M58.84,19.05s.08,0,.08.02c-.05.06-.12-.07-.19,0,0,.06.02.09.06.11.08-.03.15-.06.25-.07-.03-.08,0-.05-.03-.13.05,0,.07-.03.03-.05-.03.06-.16.05-.19.12,0,0,0,0-.01,0Z" fill="#ce2027"/>
        <path d="M41.43,31.25v.07c.1.01.13-.03.19-.05.37-.05-.12,0-.2-.02h.01Z" fill="#ce2027"/>
        <path d="M33.81,30.25c.07,0,.06.07.11.09,0-.05.05-.07.02-.13-.07,0-.13,0-.14.05h0Z" fill="#ce2027"/>
        <path d="M40.88,32.09c-.11,0-1.39-1.21-1.44-1.18.1.01,1.36,1.23,1.44,1.18Z" fill="#ce2027"/>
        <path d="M39.39,30.18c-.07,0-.09-.06-.17-.06,0,.06.14.1.17.06Z" fill="#ce2027"/>
        <path d="M41.58,32.12c.07-.02.2.02.22-.03-.07-.02-.19-.03-.22.03Z" fill="#ce2027"/>
        <path d="M43.31,31.7c.07.1-.22.05-.14.09.13.03.27-.05.14-.09Z" fill="#ce2027"/>
        <path d="M43.05,32.05c.08-.02.08.04.17.02v-.07c-.07.06-.16-.04-.16.05h0Z" fill="#ce2027"/>
        <path d="M42.25,32.12c.07.06.11.02.17-.03-.04-.07-.09,0-.17.03Z" fill="#ce2027"/>
        <path d="M42.3,32c-.11-.01-.2-.07-.28,0,.11-.03.24.03.28,0Z" fill="#ce2027"/>
        <path d="M31.73,30.45s-.08-.07-.08-.02c.05.09-.16-.06-.14.07.08-.02.08.04.17.02,0-.02,0-.04.03-.05.15.03.41-.05.03-.02h-.01Z" fill="#ce2027"/>
        <path d="M21.18,29.14c0,.07.17.11.17.04-.08,0-.09-.05-.17-.04Z" fill="#ce2027"/>
        <path d="M32.35,30.49c.1.01.12-.02.14-.07-.08,0-.15,0-.14.07Z" fill="#ce2027"/>
        <path d="M32.84,30.37c.07.18-.31-.03-.3.08.17.02.17.03.34.06.04-.04,0-.1-.03-.13h-.01Z" fill="#ce2027"/>
        <path d="M32.1,30.48c.09,0,.17,0,.19-.05-.08,0-.19-.01-.19.05Z" fill="#ce2027"/>
        <path d="M59.74,19.26c0-.06.04-.07.08-.09,0,.05.12,0,.14.04.03-.02,0-.08.08-.07.96-.02,1.43,0,2.28-.03-.02-.15.09.02.14-.05-.06-.12-.12-.09-.25-.13-.02.07.07.04.09.09-.04,0-.06.01-.08.02.03-.1-.14-.06-.06-.13-.4.06-.87.14-1.47.11,0,.04-.02.06-.05.07-.07-.05-.07-.02-.2-.02.03-.07,0-.08-.06-.11,0,.03,0,.06-.03.07-.27,0-.7.13-.83.23.05-.02.17,0,.23-.01h0Z" fill="#ce2027"/>
        <path d="M38.47,25.81s.08.03.14.02v-.07s-.09.02-.14.05Z" fill="#ce2027"/>
        <path d="M34.67,21.02s-.04.04-.05.07c.05.03.12-.02.22,0,0,.04-.04.06,0,.07.08-.09-.1-.1-.17-.13h0Z" fill="#ce2027"/>
        <path d="M35.26,21.25c-.09.02-.05-.04-.03-.07-.06.03-.14.05-.16.12.1-.08.08.11.17.02-.08,0,.04-.04.03-.07h0Z" fill="#ce2027"/>
        <path d="M35.45,21.02c-.1,0-.33-.1-.39.01.16-.06.23.06.39-.01Z" fill="#ce2027"/>
        <path d="M33.38,20.73c.08-.02.24.02.28-.03-.02-.02-.32,0-.28.03Z" fill="#ce2027"/>
        <path d="M34.26,21.15s-.05-.05-.11-.04c.07.1.19.02.31.06,0-.07-.2-.04-.06-.11h-.11c0,.06.06.07-.02.09h0Z" fill="#ce2027"/>
        <path d="M34.59,21.12c0-.07-.07-.06-.11-.09,0,.06.05.04,0,.09h.11Z" fill="#ce2027"/>
        <path d="M36.69,20.83c.07.01.08.07.14.08-.02-.07-.02-.04,0-.11-.04.01-.14-.02-.14.03Z" fill="#ce2027"/>
        <path d="M36.89,20.86c.09,0,.21-.03.2.06-.07,0-.08.04-.14,0,.03.08.1.12-.02.16.06.02.11.04.17.06.04-.08-.09-.01-.09-.06.06-.04.04-.06.02-.11.03.02.08.03.14.02v.07c.15-.03.13-.04.28,0,0-.07-.03-.1-.11-.09-.04,0-.02.04-.05.05-.09-.01-.06-.12-.17-.06,0-.03,0-.05.03-.07-.07-.01-.22-.11-.25-.01v-.02h0Z" fill="#ce2027"/>
        <path d="M35.85,21.3h.08s0-.06.05-.11c-.15.04-.22.02-.42.04,0,.06.06.05.09.09,0-.07.25-.11.28-.03-.03,0-.08,0-.08.02h0Z" fill="#ce2027"/>
        <path d="M36.56,21.1c.19.02.38.17.5.12-.11-.07-.35-.16-.5-.12Z" fill="#ce2027"/>
        <path d="M36.85,20.67c.07,0,.11-.02.14-.05-.03-.06-.11,0-.14.05Z" fill="#ce2027"/>
        <path d="M33.6,21.41s.34-.06.33-.08c-.02-.04-.37,0-.33.08Z" fill="#ce2027"/>
        <path d="M37.13,20.81c.12,0,.23-.02.28.04-.05-.08,0-.04.05-.09-.07-.07-.26,0-.33.06h0Z" fill="#ce2027"/>
        <path d="M37.67,20.97c-.06,0-.05.03-.08.05-.02-.04-.09-.17-.17-.08.1.01.19.19.25.04h0Z" fill="#ce2027"/>
        <path d="M32.85,24.95c0-.07-.13-.06-.22-.06,0,.08.13.06.22.06Z" fill="#ce2027"/>
        <path d="M35.51,24.77c-.08,0-.22-.05-.28,0,.11-.03.23.05.28,0Z" fill="#ce2027"/>
        <path d="M35.23,24.69c-.12-.02-.11.05-.19.05-.14.04.21.02.19-.05Z" fill="#ce2027"/>
        <path d="M33.78,21.08c-.13-.03-.05.09-.14.09-.02-.04-.08-.04-.03-.09h-.14c0,.06-.11.06,0,.09.03-.07.23.03.28.04-.03,0-.08,0-.08.02.05,0,.09,0,.11.02,0-.05.06-.07.08-.11.06.02.12.06.17,0-.1-.05-.21-.05-.3,0,0-.04.07-.02.05-.07h0Z" fill="#ce2027"/>
        <path d="M37.9,25.52s0,.06.03.07c0-.06.11.05.11-.03-.05,0-.05-.06-.14-.04Z" fill="#ce2027"/>
        <path d="M32.29,21.21s.02.06.06.06c-.03-.15-.18-.06-.23-.17,0,.03-.05.02-.05.05.06.01.09.06.12.11.08.01.05-.05.11-.05h-.01Z" fill="#ce2027"/>
        <path d="M36.81,20.98c-.06.03-.32.02-.28.05.12,0,.24.05.28-.05Z" fill="#ce2027"/>
        <path d="M29.22,22.42c-.07,0-.13.02-.16.05.05.03.18.02.16-.05Z" fill="#ce2027"/>
        <path d="M32.73,21.13c-.13.02-.21,0-.28-.04v.07c.1-.02.12.02.17.04-.05-.09.12-.01.11-.07Z" fill="#ce2027"/>
        <path d="M33.04,21.21c.1,0,.18-.01.22-.05-.09-.03-.16,0-.22.05Z" fill="#ce2027"/>
        <path d="M33.1,21.3s.16.02.17-.03c-.07-.04-.14-.05-.17.03Z" fill="#ce2027"/>
        <path d="M32.97,20.79c.02-.1-.15-.07-.17-.02.07,0,.13,0,.17.02Z" fill="#ce2027"/>
        <path d="M32.37,21.21s.07.02.06.06c.05,0,.15-.07.08-.09,0,.03-.04.03-.08.02,0-.03-.08-.07-.06,0h0Z" fill="#ce2027"/>
        <path d="M33.01,21.17c-.1.02-.03-.1-.11-.09,0,.06-.08.09-.14.05.03.07.02.06-.02.11.12,0,.18-.05.27-.08h0Z" fill="#ce2027"/>
        <path d="M34.9,21.26c-.13-.01-.12.17-.02.09-.02,0-.03-.02-.03-.04.03,0,.07,0,.05-.05Z" fill="#ce2027"/>
        <path d="M17.9,28.45c-.13.04-.2-.09-.25-.04.03.04.19.1.25.04Z" fill="#ce2027"/>
        <path d="M17.91,27.96c-.01-.1-.21-.01-.25,0,.13,0,.13-.03.25,0Z" fill="#ce2027"/>
        <path d="M17.11,28.01c.2,0,.44,0,.52-.08-.32.03-.3-.01-.52.08Z" fill="#ce2027"/>
        <path d="M18.41,27.9c-.18,0-.34.06-.45-.03.06.17.35.1.45.03Z" fill="#ce2027"/>
        <path d="M18.07,28.4s-.1.02-.11.07c.06,0,.11,0,.14.02,0-.03,0-.08-.03-.09Z" fill="#ce2027"/>
        <path d="M35.52,29.97c.07.01.23.07.31.01-.12.03-.23-.07-.31-.01Z" fill="#ce2027"/>
        <path d="M39.6,20.58c-.06.01-.18-.02-.19.03.08.02.17.03.19-.03Z" fill="#ce2027"/>
        <path d="M41.56,20.38c-.1,0-.14.02-.16.07.06-.02.15-.02.16-.07Z" fill="#ce2027"/>
        <path d="M36.57,20.61c-.07,0-.07.05-.11.07.07-.02.06.04.09.06.08-.02.26.04.25-.05-.1,0-.24.02-.23-.08Z" fill="#ce2027"/>
        <path d="M36.07,20.65c.11.03.25.05.33-.01-.15.04-.24-.02-.33.01Z" fill="#ce2027"/>
        <path d="M36.63,20.83v.04c-.08-.03-.2-.02-.25-.06-.02.1.38.09.25.01h0Z" fill="#ce2027"/>
        <path d="M43.45,20.32c-.12.02-.33-.07-.36.01.13.02.18-.02.25.06-.05-.09.12-.01.11-.07Z" fill="#ce2027"/>
        <path d="M36.23,21.09c.07.05.16-.04.2.04.1-.11-.13-.09-.2-.04Z" fill="#ce2027"/>
        <path d="M38.3,20.8s0,.06.03.07c.09-.15-.47-.15-.42-.03.11-.07.28.01.39-.03h0Z" fill="#ce2027"/>
        <path d="M34.58,30.02c-.06.05-.16-.04-.22.03.06,0,.2.05.22-.03Z" fill="#ce2027"/>
        <path d="M21.31,26.03c.95,0,1.9.02,2.89-.09,0,.06.18-.03.14.06.53-.09,1.24.07,1.75-.06,0,.03,0,.06.03.07-.03-.08.06-.09.11-.11.06.1.26,0,.39.1.03-.1.38,0,.44,0,.03-.03.02-.08.08-.09.02.08.14-.01.2.06.08-.1.23-.05.36-.08.03.13.19.06.34.06.06-.03-.04-.05.03-.07.71.04,1.39-.04,2.17.02-.02,0-.05,0-.05.02.09.01.05-.06.14-.05,0,.06.05.04,0,.09.13-.05.31,0,.44,0,.03-.07-.05-.05-.06-.09.07,0,.06-.04.14-.03,0,.04-.07.03-.05.09.13.03.09-.08.22-.05-.01.11.14.02.23.08.05-.08.06-.09.05-.14.05.01.08.01.11,0,.06-.08.12-.16.16-.24-1.09.03-2.26.23-3.25.2.02,0,.04.01.03.04-.52-.11-.97-.04-1.45-.02-.06-.03-.09-.09-.14-.13,0,.1.04.05.06.15-.22-.09-.52-.07-.75-.02v-.07c-.17.09-.4.13-.55.06.03,0,.03.03.03.07-.14.02-.26.04-.28-.04-.07.02-.17.01-.22-.06-.11.02,0,.11-.05.13-1.06-.07-2.5,0-3.66.1,0,0-.03.04-.03.04ZM31.22,25.87c0,.06-.13.06-.17.03-.01-.09.12-.02.17-.03Z" fill="#e71d25"/>
        <path d="M34.27,29.86c.09.01.1-.04.11-.09-.09,0-.08.06-.11.09Z" fill="#ce2027"/>
        <path d="M63.05,32.86s-.03-.05-.06-.06c-.1.05-.19,0-.22-.06,0,.04,0,.07-.02.09.08,0,.15,0,.14.06.1-.02.15.05.17-.03h0Z" fill="#ce2027"/>
        <path d="M61.83,32.08c0,.13.21.04.22-.03-.1,0-.12.07-.22.03Z" fill="#ce2027"/>
        <path d="M59.76,31.74c.07-.02.24.04.22-.05-.09.07-.2-.09-.22.05Z" fill="#ce2027"/>
        <path d="M34.63,29.84c.07-.01.17,0,.16-.07-.07.01-.17,0-.16.07Z" fill="#ce2027"/>
        <path d="M38.76,25.47c.12,0,.25,0,.3-.05-.1,0-.33.03-.3.05Z" fill="#ce2027"/>
        <path d="M23.38,26.34c-.11.01-.25,0-.27.08.07-.01.16.07.2.02-.11-.05.1-.04.08-.09h-.01Z" fill="#ce2027"/>
        <path d="M22.4,26.26s.31.01.36-.06c-.11.05-.34-.02-.36.06Z" fill="#ce2027"/>
        <path d="M28.43,25.51c-.01-.06-.08-.07-.14-.08,0,.09-.2.02-.19.12.07-.04.24.03.33-.03h0Z" fill="#ce2027"/>
        <polygon points="31.36 25.88 31.36 25.88 31.36 25.89 31.36 25.88" fill="#ce2027"/>
        <path d="M23.85,26.28c-.1.08-.2-.06-.28,0l.02.02s-.05.03-.08.05c-.04,0-.06,0-.08-.02,0,.07.09.04.14.06.01-.04.08-.05.03-.08.07.04.22.06.24-.04h.01Z" fill="#ce2027"/>
        <path d="M28.67,24.48c-.06,0-.3,0-.19.05.01-.05.11.03.17.02v-.04s.03,0,.03-.02h-.01Z" fill="#ce2027"/>
        <path d="M21.99,26.28c.08-.02.19-.01.25-.05-.06-.01-.21-.01-.25.05Z" fill="#ce2027"/>
        <path d="M19.4,26.83s0-.03.03-.02c.02,0,.03,0,.03-.02,0-.03-.25-.02-.17,0,.09-.03.07.03.11.04Z" fill="#ce2027"/>
        <path d="M21.23,25.48s.13-.07.02-.09c0,.04-.02.06-.05.07.03-.07-.12-.09-.14-.04.1-.02.07.08.17.06Z" fill="#ce2027"/>
        <path d="M18.98,27.64s-.09-.12-.11-.06c.05,0-.01.02-.03.05.02,0,.03.02.03.04.05,0,.09,0,.11-.03Z" fill="#ce2027"/>
        <path d="M19.01,26.99c-.09-.03-.27-.02-.27.08.08-.08.22.01.27-.08Z" fill="#ce2027"/>
        <path d="M20.82,25.45c-.11.03-.26-.11-.3,0,.05.03.26.03.3,0Z" fill="#ce2027"/>
        <path d="M20.18,26.84c0-.06-.09-.05-.09-.11-.09,0-.12.04-.16.07.12-.03.17-.01.25.04Z" fill="#ce2027"/>
        <path d="M20.07,25.52h-.11c-.02.09.14.08.11,0Z" fill="#ce2027"/>
        <path d="M28.98,24.63c.09-.02.12-.07.19-.1-.12-.01-.15.04-.19.1Z" fill="#ce2027"/>
        <path d="M35.94,25.84s-.02.05-.02.07c.13.01.35.1.53-.02-.2.01-.35-.03-.5-.05h0Z" fill="#ce2027"/>
        <path d="M36.47,25.88c.07.03.17.04.25.06.02,0,.03-.02.04-.03-.12,0-.16-.05-.29-.03Z" fill="#ce2027"/>
        <path d="M28.07,25.48c-.42,0-.79-.06-1.17.02.38-.08.78.23,1.17-.02Z" fill="#ce2027"/>
        <path d="M24.77,24.41c.04-.07-.16-.1-.14-.02.06,0,.11,0,.14.02Z" fill="#ce2027"/>
        <path d="M36.76,25.91h0Z" fill="#ce2027"/>
        <path d="M39.3,25.76c.1-.01.14-.07.19-.12-.12,0-.15.06-.19.12Z" fill="#ce2027"/>
        <path d="M27.08,24.45c.1.03.24,0,.31,0-.12-.01-.23-.01-.31,0Z" fill="#ce2027"/>
        <path d="M35.94,25.83s-.02,0-.03.01h.03v-.02h0Z" fill="#ce2027"/>
        <path d="M85.75,80.75c-.01.06-.03.12-.06.17h.17l-.11-.17Z" fill="#ce2027"/>
        <path d="M80.77,74.98c.09-.07.19-.13.28-.2h0c-.1.04-.2.09-.31.14.01.02.02.04.04.07h-.01Z" fill="#ce2027"/>
        <path d="M84.99,79.83c-.15.03-.09-.12-.02-.31l-2.88-4.48c-.06.46.35.65.15,1.19-.61-.34-.04-1.36-.77-1.63-.02.12-.06.23-.12.33.09.23.07.33-.08.13-.09.11-.21.19-.35.23.02.09.04.17.04.27-.27-.14-.53-.38-.79-.5h-.04s.01,0,.02-.02c-.23-.1-.48-.1-.74.15-.42-.17-.07-.81-.52-.61-.02-.18.12-.34.28-.5-.18.02-.36.11-.55.31-.29-.1-.32-.38-.37-.59-.09-.06-.18-.12-.27-.19-.03,0-.05.01-.08.03v-.08c-.33-.22-.67-.37-1.04-.02-.42-.17-.07-.81-.52-.61-.01-.1.03-.19.09-.28-.32-.2-.04-.77-.47-.58-.04-.34.55-.64.65-.97,0,.18.07.31.21.43.15-.24.51-.47.58-.72-.01.2.1.34.26.47-.07-.4-.51-.6-.2-1.23.39.15.24.62.66.75-.06.3-.26.36-.39.53.42.31,1.09.58,1.1,1.41.47.52,1.73.66,1.84,1.95.16-.07.32-.13.47-.22.03.06.06.11.09.16.32-.23-.62-.68.1-.83l-3.09-4.81c-.26.04-.51-.09-.74-.4.04-.14.09-.27.23-.4l-.03-.05c-.2-.03-.39-.16-.57-.41.03-.1.06-.19.13-.28l-.26-.41c-.7-.13-1.12-1.14-1.17-1.82l-.28-.43c-.13.22-.19.56-.42.63-.47-.09-.13-.91.29-.83l-.64-.99c-.11-.09-.23-.16-.33-.23h0c.13.24.3.33.59.81-.15.02-.31.04-.47.19-.29-.56-.71-.66-.47-1.01-.33-.51-.73-.57-.17-1.08l-.04-.07c-.22-.03-.41-.27-.7.07.14-.96-.63-1.68-1.24-2.43-.02.14-.04.28.12.44h.11c.38.33-.11.59.35.92.3.24.5.68.21.84-.16-.36-.28-.74-.92-.82.11-.14.24-.19.38-.17-.13-.17-.25-.33-.42,0-.28-.4-.18-.69.11-.76-.15-.19-.29-.47-.48-.09-.32-.46-.15-.77.23-.78-.21-.31-.36-.63-.38-.98-.1-.04-.2,0-.3.24-.32-.4-.32-.72-.12-.9-.33-.33-.36-.82-1.01-.77-.17-.51.18-.28.43-.19-.02-.04-.04-.08-.07-.12-.25.02-.38-.45-.33-.66-.03-.06-.06-.13-.09-.19v-.02c-.26.17-.54.06-.83-.26.08-.08.13-.15.15-.22-.16-.04-.31-.1-.56-.38-.09-.1-.19-.22-.29-.34-.08.06-.15.09-.21.08-.05.07-.1.14-.18.22-1.5-.55-1.89-2.21-3-3.37l-5.56,1.44v.25c-.1-.07-.21-.13-.36-.16l-.44.11c-.14.38-.36.74-.53,1.1.13.29.54.32.77.52-.16.27-.58.38-.81.12.48.9.07,1.69-.56,2.15l.18.32c.09-.09.18-.17.27-.23-.06.13-.1.31-.13.49l.29.53c.04-.07.09-.13.12-.2.16-.39-.53-1.5.39-1.26-.06.18-.37,1.04-.03.64-.1.35-.07.93-.1,1.51l9.29,17.1c.25-.21.7-.07.74-.65.14.07.02.29.2.34-.19.12-.44.14-.44.6-.24-.05-.24-.23-.48-.27l1.56,2.88h.08s-.04.04-.05.06l1.07,1.94h4.45c-.05-.07-.08-.16-.07-.27.23.02.2.19.36.24.27.07.27-.32.6-.12-.01.06-.04.11-.07.15h4.63c.02-.12.04-.23.06-.35.23.02.2.19.37.24.05-.18.09-.36.14-.54-.29-.27-.56.42-.57,0,.1-.58.61.04.84.08.19-.33-.21-.33-.29-.51.1-.09.2-.18.24-.37.37.01.47.18.29.51.41.13.25-.73.81-.36-.47.37-.85.8-.98,1.3h3.98c-.06-.12-.09-.23-.1-.34.25-.14.46.29.72.04l-.65-1.01c-.02.05-.04.12-.04.21l-.05.03h0ZM63.28,53.99c.6.28.48.86,1.19.89,0,.39-.34.2-.41.46-.05-.39-.66-.45-.96-.69.06-.22.12-.45.18-.67h0ZM59.22,56.99c-.55-.16-.57-.81-.73-1.32.26-.03.27.17.47.19-.28-.5.25-1.29-.25-1.3.16-.5.64-.65.71-1.25.06.58.28,1.37-.27,2.07.57.43.38,1.02.08,1.61h-.01ZM60.08,55.91c-.64-.22,0-.71-.09-1.29.62.18.09.82.09,1.29ZM60.51,53.85c-.62.83-.49-.5-.12-.81.71.31-.7.88.12.81ZM62.3,65.76c-.14-.09-.27-.33-.06-.3,0-.21-.18,0-.4-.11.04-.13.07-.27.11-.4.49.02.52.3.73.48-.12.11-.34.06-.37.33h0ZM63.68,60.54c-.28-.18-.54-.25-1-.55.24-.1.43-.3.77-.22.09.25.36.39.22.78h0ZM64.03,66.79c-.25-.39-.14-.97-.18-1.48.15.36.74.48,1.09.72-.22.4-.53.64-.92.76h.01ZM66.73,71.67c.43,1.52-.48.88,0,0h0ZM70.17,60.84c.42.06.16.51.22.78-.28-.17-.56-.58-.22-.78ZM69.71,69.6c.42-.27.35.69.28,1.08-.44-.16.09-.88-.28-1.08ZM69.97,57.75c-.45.49-.68-.45-.52-.61.15-.22.76.5.52.61ZM69.07,56.29c.15-.22.76.5.52.61-.45.49-.68-.45-.52-.61ZM69.68,78.33c-.09-.14-.26-.22-.5-.28.29-.69.5-.96.9-1.77.01,1.04-.55,1.25-.4,2.04h0ZM70.3,79.21c.1-.09.2-.18.24-.37-.03-.13-.05-.27-.2-.34.11-.33.46.08.53.14-.11.34-.21.68-.58.56h.01ZM70.62,75.86c-.39.36-.22-.54-.56-.58.11-.18.11.05.27.07.16.02.18-.21.24-.37.09.1.18.2.36.24.05.38-.7.31-.31.63h0ZM71.13,72.84c.44,0,.16.44.6.45-.31.34-.72.04-.6-.45ZM71.37,75.19c.06-.19.12-.37-.03-.44.16-.46.41.47.57,0,.35.31-.26.57-.54.43h0ZM72.75,69.98c.26.3.61.55.59,1.02-.12-.38-.91-.38-.59-1.02ZM73.82,70.26c-.12-.2-.43-.28-.76-.35.11-.66.78-.34,1.05-.72.53.34-.17.69-.28,1.07h-.01ZM77.24,78.91c-.4-.17-.45.27-.77.22.06,1.07-.67.78-.39,1.47-.15.07-.34.06-.57,0-.2-.87,1.52-1.69.64-2.41.02-.47.32-.13.27.07.29.1.45,0,.51-.29.26.22.38.53.32.94h-.01ZM79.03,75.38c-.13-.27-.59-.34-.36-.81.21.22.6.33.36.81ZM82.89,76.98c.29.05-.07.49-.04.7-.18-.05-.36-.09-.53-.14.2-.17.51-.16.58-.56h-.01ZM80.65,76.81c.43.1.12.93.02,1.01-.16-.09-.15-.29-.33-.37.03-.34.32-.23.31-.63h0ZM83.55,80.27c-.54-.03-.01-.38-.39-.72.39-.3.81.44.39.72ZM83.96,79.12c-.1,0-.15-.03-.19-.05-.07,0-.15,0-.27-.07,0-.23.1-.27.22-.29,0-.09-.03-.18-.12-.27-.06-.02-.12-.07-.17-.12-.06.06-.12.12-.2.18-.14-.13-.24-.26-.3-.38h-.04s-.03.07-.04.1c0,.01,0,.02-.01.04-.03.18.15.24.18.39.3.05.5.55.17.77-.05,0-.08-.01-.12-.02-.07.08-.14.16-.25.24-.28-.25-.38-.49-.39-.72.18-.1.34.1.52.12,0-.06,0-.12-.03-.19-.31.01-.07-.3-.13-.44-.07.13-.18.25-.34.37-.04-.03-.06-.07-.09-.1-.07.09-.15.18-.25.22-.18-.08.06-.41-.16-.47-.66-.03.14.69-.38.9-.16-.64-1.07-.14-1.44.05-.45-.23.84-.46.04-.7.3-.14.54-.37.65-.83.18.05.36.1.53.14-.09.36-.28.77.05.87.49-.12-.25-.44.08-.84.3.29.45.22.57.08v-.04s.03,0,.04-.01c.1-.14.19-.31.33-.35.05-.01.26.23.45.26-.02-.07-.03-.13-.04-.2.1-.06.2-.02.29.03.03-.08.06-.18.07-.32.09.13.19.26.28.39.05-.03.1-.06.15-.14.02.11,0,.21-.04.31.07.1.15.2.21.31.13.02.24.13.29.27.05.06.07.13.18.16-.02.09-.05.18-.07.27-.05-.02-.09-.03-.13-.03-.03.04-.06.08-.11.11h0ZM84.15,79.75c.2.18.03.59.56.58-.22.75-.95,0-.56-.58Z" fill="#ce2027"/>
        <path d="M80.63,74.73l-.08-.04.06.06s.02-.01.03-.01h0Z" fill="#ce2027"/>
        <path d="M49.99,19.15h0Z" fill="#ce2027"/>
        <path d="M77.66,72.22c.2.2.35.46.36.84l.08.08c.14-.18.31-.36.43-.53-.28-.2-.56-.42-.87-.38h0Z" fill="#ce2027"/>
        <path d="M50.31,19.23s.03-.01.06,0c-.02-.02-.03-.03-.04-.05-.11.07-.15.01-.13-.04-.07.04-.11.05-.15.07.08.04.17.07.26.03h0Z" fill="#ce2027"/>
        <path d="M81.67,74.39l-.3-.47c.08.17.11.35.1.54.07-.08.13-.09.2-.07Z" fill="#ce2027"/>
        <path d="M71.9,57.47s-.06-.07-.09-.11c.02.04.04.08.07.12,0,0,.02,0,.03-.02h-.01Z" fill="#ce2027"/>
        <path d="M72.8,60.01s-.03-.03-.04-.05c.01.02.02.03.04.05Z" fill="#ce2027"/>
        <path d="M71.99,57.64c.09.1.19.2.32.28-.12-.13-.23-.25-.33-.37,0,.03.01.06.02.09h0Z" fill="#ce2027"/>
        <path d="M56.2,31.7s0-.02.02-.02c0,0-.02,0-.02.02Z" fill="#ce2027"/>
        <polygon points="56.23 31.68 56.22 31.68 56.22 31.68 56.23 31.68" fill="#f2f2f2"/>
        <path d="M57.53,31.62s-.11.07-.14,0c.08-.02.16-.05.22-.1,0,.04.03.05.08.04-.06.06.04.12.09.15.02-.08-.06-.08-.06-.15.13.01.03-.04.08-.05.14-.01.16.08.28.08-.03.07-.14.08-.19.14.16,0,.17-.09.3-.1,0,.06-.05.07.03.09.17-.14.53-.11.74-.14-.04-.05-.08.04-.11-.02,0-.03.06-.03.08-.05.02.05.11.04.09.13.15-.08.32-.02.53-.06.03.03.07.16.14.08-.03,0-.07,0-.06-.04.12-.02.2-.03.39-.03.02.14.2.14.32.19.02,0,.04,0,.07-.01,0-.02-.03-.03,0-.04.03.01.05.02.08.02.4-.05.81-.08,1.23-.08.1,0,.2,0,.3.01.07,0,.14-.01.22-.01h.16s-.03-.07,0-.1c-.09-.02-.19-.03-.25-.08.16-.04.32.04.47-.06.1,0,.06.1.17.08.03.04-.08.08,0,.09-.12.05-.21.06-.33.07.73.02,1.44.11,2.13.27,0-.04,0-.07-.01-.1.08.02.15.05.23.08-.02,0-.04.01-.03.05.03,0,.04.01.06.03.04,0,.08.02.11.03-.02-.02-.03-.05-.02-.07.33.11.65.25.95.38,3.78,1.47,6.46,5.14,6.46,9.45,0,1.33-.26,2.6-.73,3.76.23.02.46.04.51-.27.3.28-.19.83-.28,1.07-.17-.09-.02-.36,0-.57-.4-.1-.07,1.04-.61.7.23-.12.25-.37.25-.61-.73,1.67-1.9,3.09-3.36,4.14h.04c.06.11-.02.21-.13.31,0,.03.02.06.03.09.07-.07.15-.14.22-.22h-.01.01s.05-.05.07-.08c.02.06.05.11.08.17.4.22.79.48,1.17.75-.28.1-.47-.32-.79-.02.31.53.7,1.02,1.12,1.33v.03c.17.05.34.1.51.11.06.13-.02.24-.15.36.07.19-.23.34-.39.51.09.06.18.12.26.17.15-.06.3-.2.45-.34.22.65.62,1.39,1.1,1.8,0,.03,0,.06-.01.08.29.09.58.19.88.22.08.17-.09.31-.27.46.02,0,.04,0,.06.02-.15.25-.29.33-.43.35-.02.05-.03.1-.01.15.01,0,.03.02.04.03h.24s.05-.02.07-.03c.01-.03.02-.05.01-.1,0,.02.01.05.02.08.07-.03.13-.05.18-.04.08-.06.17-.14.25-.22.22.65.62,1.39,1.1,1.8,0,.2-.12.26-.23.33.31.45.98-.98,1.79.49-.65-.03-1.01.38-1.44.43.26.14.5.16.46-.06.02.09.05.26.1.45.09.05.18.09.26.14.05,0,.09-.03.14-.03,6.06-3.74,9.32-10.11,9.32-18.61,0-12.07-7.19-19.48-20.01-20.97.03-.04-.04-.09.01-.1.03,0,.03-.02.05-.02.11-.02.1.05.17.06.03-.06.17-.05.28-.05.03.17.22.05.34.06.46,0,1.06.07,1.42.04-.28-.05-.38,0-.61-.09-.33.1-.75-.02-1.11.01,0-.06-.05-.07-.06-.11.03-.03.1-.04.14-.07-.11-.04-.4.1-.58-.03-.01.07-.1.04-.17.03-.08.15-.5.16-.66.13,0-.04.25-.01.16-.05-.08,0-.17,0-.17-.06.05-.01.16.02.17-.03-.09-.03-.27.02-.23-.13-.12-.01.04.08-.08.09,0-.02-.02-.02-.06-.02-.04-.1.05-.11.08-.16-.13-.06-.13.04-.14.07-.09-.06.07-.09,0-.13-.12-.03-.25-.04-.31-.03.03,0,.04.02.06.04-.05-.01-.11.07-.14,0,.03,0,.08,0,.08-.02-.16-.06-.41,0-.5-.09-.07.03.05.07-.02.09-.16.04-.15-.07-.25-.08,0,.03.04.11-.02.11-.1,0-.27.05-.25-.06.03-.02.21-.03.14-.05-.15.05-.27,0-.33.1-.11-.02.02-.12-.09-.13-.04.01,0,.09-.05.09-.04-.04-.33-.12-.2-.04-.12-.02-.14-.01-.31-.01,0,.03,0,.08-.02.09-.47-.07-.87.05-1.28,0,0,.04.04.06,0,.07-.16-.03-.29-.06-.39.03,0-.03,0-.05.03-.07-.11.04-.26,0-.36-.03.07-.09.22-.02.24-.16-.19.02-.27.21-.49.17-.04.05.07.08,0,.09-.09-.03-.11-.01-.17.03,0-.08-.08-.08-.14-.11-.22.09-.44-.05-.64.09-.44-.05-1.09,0-1.44.09-.03-.05-.16-.02-.14-.11-.16.09-.25-.05-.36.06.03,0,.07,0,.06.04-.05.01-.11.02-.19.03-.12.01,0-.08-.06-.06-.08.15-.31.01-.44,0,0,.04.04.04.06.06-.11.01-.31.04-.34-.08.07-.03.1.09.14.02-.04,0-.03-.05-.06-.06-.3.14-.72.11-.91.1-.07,0-.1.07-.14.07-.09,0-.16-.1-.31-.06.03,0-.04,0-.11,0-.03,0-.32.06-.39-.03,0-.06.22-.04.14-.07-.1.01-.13.04-.22,0,.03.11-.14.1-.19.05.09-.04.21-.04.25-.12-.17.04-.49.15-.47-.05,0,.02-.05.03-.06,0,.11-.06.06-.11.16-.16-.35.2-.65-.1-.96.19,0-.04.03-.05.02-.09-.09,0-.08.07-.19.05,0-.04-.03-.05-.03-.09-.07.01-.15.02-.19.05.12-.01.18.03.2.1-.19-.03-.27.08-.45-.03.11.02.08-.07.19-.05-.03-.05,0-.14-.12-.13,0,.03,0,.08-.02.09,0-.05-.09-.08-.21-.1-.07.05-.15.07-.24.08v.03s-.1-.02-.17-.02v-.02c-.09-.01-.17-.03-.23-.08,0,0-.03.01-.05.02v.02h.05s-.08.08,0,.09c0,.01-.03,0-.05-.01-.06.3-.58.34-.75.15-.07.06-.26,0-.3.16-.23-.03-.42.01-.53-.03.09-.11.31-.11.42-.04.1-.11.2-.19.41-.1-.03-.03-.05-.07-.05-.12-.06,0-.15-.05-.2-.05,0-.05.12-.01.17-.03-.05.04,0,.05.04.04v-.07s.06-.08.09-.11c-.29-.02-.38.22-.53.17,0,.16-.14.1-.25.05-.04.05.07.08,0,.09-.08-.05-.14-.04-.25-.01-.03-.07.04-.07.05-.11-.06.04-.15,0-.17.03.04.01.07.03.09.06-.07,0-.08.04-.17.03v-.07c-.23.13-.56.03-.66.13-.09.02-.06-.06-.11-.06,0,.03,0,.05.03.07-.07.05-.4-.11-.22,0-.13,0-.17-.09-.25-.04.06,0,.07.06,0,.07.04-.03.02-.07-.06-.06-.03.04-.09.05-.14.07.07-.06-.13-.04-.17-.02.02,0,.05,0,.06.02-.05.01-.2.06-.25,0,.02-.03.11,0,.11-.05-.1-.04-.12.03-.22.05-.05-.13-.27.11-.31-.06.23.08.36-.21.5-.04,0-.13.1-.05.22-.1-.03-.07.04-.06.05-.09-.13-.01-.08.03-.11.05-.03-.02-.1,0-.09-.06.03,0,.08,0,.08-.03-.11.02-.17,0-.2-.06-.14.06-.25,0-.55.04-.05.04.04.07-.05.09-.36-.09-.69.12-.97.08-.05.07.06.13-.08.14-.07-.03-.05-.07-.03-.13-.25.1-.42-.03-.69,0-.11.19-.5.02-.66.18.13-.04.29-.04.36.03-.1.08-.43.12-.39-.03-.15.08-.29-.08-.33.06-.04-.14-.35-.12-.53-.07.03,0-.04-.02-.11-.02-.37.03-.82,0-1.16.13,0-.03,0-.08-.06-.06,0,.06,0,.11-.08.11-.02-.05.08-.07-.03-.07-.03.04-.08.07-.14.03-.06.03.04.05-.03.07-.05,0-.09-.01-.11-.04,0-.04.07-.02.05-.07-.1.05-.12.03-.25.07,0,.08.09,0,.11.09-.59.3-1.31.24-1.93.31-.03-.06.17-.04.08-.07-.27.07-.32.14-.53.04-.1,0-.1.08-.16.12-.1-.05-.38.11-.5-.03,0,.08-.14,0-.19.07,0-.08-.05-.06-.08-.02-.02-.13-.15-.03-.2-.1-.04.08-.12.06-.22.03-.06.03.04.05-.02.07-.12-.04-.29.04-.39-.05-.05.09-.11.16-.17.2-.1-.04-.15-.1-.17-.16-.09,0-.18-.03-.21-.07-.02.13-.33.11-.33.05-.1.06-.21.12-.33.17,0-.03.04-.06.05-.09-.51,0-.91.13-1.55.05,0,.04-.02.06-.05.07-.19-.16-.63.16-.64-.11-.14,0,0,.08-.11.11-.32-.01-.54.07-.72-.02-.17.07-.25.05-.47.1,0-.05.08-.03.08-.07-.27.02-.4.08-.61-.02.01.1-.14.08-.16.16.15,0,.34,0,.42.12-.12.05-.17-.08-.22-.01.28.14.43-.03.75-.02,0,.03,0,.05-.03.07.11.04.23-.02.33-.06.53.13,1.16-.15,1.67.01.16-.11.46-.11.72-.13-.04.11-.32.04-.36.14.12,0,.55-.07.61.02,0-.04,0-.08.05-.09.07-.02.06.04.11.04.05-.13.51-.07.66-.07-.02,0-.03-.02-.03-.04.05.04.23-.09.33-.01-.06,0-.1,0-.11.05.12.08.09-.09.22-.07,0,.05-.08.03-.08.07.23-.04.65,0,.86-.05.03-.07-.09-.01-.06-.09.04.01.14-.03.14.02,0,.03-.04.04-.05.07.43,0,.84-.06,1.36-.04.07.1.4-.03.55-.02.2.02.52-.04.8-.07.44-.05.9.02,1.27-.11,0,.03,0,.08.06.07,0-.03,0-.08.02-.09.13.01.22.05.28.12.03-.05.07-.08.11-.11-.05,0-.14.07-.17,0,.05-.01.05-.07.14-.05.12.14.05.05.23.08-.05,0-.07.02-.08.05.12-.07.32.04.44-.04-.15-.03-.19,0-.31-.06.14-.02.18,0,.3-.05.03.04-.08.08,0,.09.13-.1.35.14.53.03-.06.02-.15-.03-.08-.04.07,0,.09.03.14.04.1-.16.31-.02.44-.1.07.03.07.06.09.09.04-.08.3-.11.36-.1.02.07-.13.02-.14.07.28-.02.37-.1.49-.15.06,0,.03.06.09.06-.05-.09.14-.12.28-.14-.05.05-.09.1-.14.15,0,0-.02,0-.03.01h0s-.08.07-.12.11v-.05c-.2.06-.46,0-.66.07,0-.03.05-.05,0-.07.05.08-.09.02-.08.07.08.04-.06.1-.11.11.03-.03.03-.06-.03-.07-.06.14-.21,0-.28.08-.07-.03.05-.07-.06-.06v.09c-.1.01-.39.03-.47.04-.07,0,.08.11-.05.09.02-.1-.31.05-.34-.1-.25.08-.36-.02-.58.09,0-.04-.17-.07-.2-.02.04-.02.12.04.06.04-.41-.09-.96,0-1.39-.04.03,0,.04.02.06.04h-.11s0-.05.03-.07c-.09.06-.24-.08-.31-.03.08.02-.04.03-.06,0-.02.06,0,.05-.08.09.04,0,.1-.01.11.02-.23.1-.58,0-.83,0-.09.04.1.07,0,.11-.09-.08-.21.11-.25,0,.02-.06.28-.05.16-.14-.13.06-.22.21-.38.12.03.22-.35.13-.46.24-.07-.04-.25-.1-.36-.03.2.02.37.06.45.19-.03,0-.08,0-.08.03.16.03.1-.1.25-.07,0-.08-.16-.03-.17-.11.22-.02.42-.04.58,0-.09-.02-.04.07-.11.07-.03-.02-.16-.06-.17-.02-.03.12-.34.21-.52.11-.08.13-.24,0-.28,0,.08.02-.02.08-.05.09,0-.1-.29-.06-.14.03-.11,0-.14-.05-.14-.08-.09.05-.18.1-.24.16,0-.06.05-.07-.03-.09-.07.03-.02.04-.05.07-.02,0-.03-.02-.03-.04-.09.16-.34-.06-.39.01.03,0,.07,0,.06.04-.13,0-.26,0-.31-.08-.04.1-.1-.03-.19-.02-.03.15-.5.18-.47.06-.09.06-.15.13-.28.05-.03.12.19.02.23.08-.08.06-.3,0-.39.06-.07-.06-.12-.1-.12-.17-.07.02-.08.08-.13.12.03,0,.08,0,.08.02-.1.08-.31.06-.31-.08.07.02.09-.1.05-.09-.04.1-.22.08-.27.16.13.03.08-.07.19-.05.04.07-.02.09.06.13-.17,0-.25,0-.36.03,0-.04.07-.03.05-.09-.1-.02-.05.08-.11.09-.05-.02-.13-.03-.14-.08-.23.13-.4.07-.72.09-.04.1.17,0,.17.06-.3.13-.63.12-.94.23,0-.03.04-.04.05-.07-.16.11-.29,0-.33.1-.41-.09-1.3.02-1.67-.1-.21,0-.48.16-.64,0-.11.09-.38,0-.47.08.04,0,0,.04-.03.05-.44-.08-.65.14-1.16.08.02.11.35-.04.31.12.28,0,.36.08.61.07-.03,0-.08,0-.08.02.02,0,.06,0,.06.02-.13,0-.21.01-.25.07.2-.02.46-.05.64.02-.05.1-.41,0-.44.06.17.04.33.08.53.09-.09.07.08,0,.06.09-.12.06-.19,0-.28.03.03,0,.1.06.03.07-.09-.03-.09,0-.19,0,0-.03.11-.07.02-.09-.11.06-.3.16-.39.06,0,.04.03.05.03.09-.07,0-.13,0-.17.03v-.07c-.17.05-.25.09-.33.17-.09-.02-.43-.05-.47.04.15.03.34-.09.45.05.37-.02.82.01,1.05-.03.15-.03.37.03.5,0,.13-.02.33-.08.42.03-.09-.04-.19.04-.28-.01-.06.03.04.05-.03.07-1.37-.1-2.86.4-4.37.36.02.2-.41.13-.55.08-.07.13-.25,0-.27.1.07.05.26-.01.28.08-.01.04.04.13-.02.13-.34.05-.54-.13-.7-.02.18,0,.32.16.59.14-.04,0-.03.18,0,.11-.04-.15.13-.03.19-.12.1,0,.12.06.14.13-.08.1-.31.09-.41.17,0,.09.1.13.2.08.43.16,1.14-.07,1.61-.03.05,0,.04.06.11.04.25-.03.64-.16.89,0,.17-.04.32-.02.5-.02,0-.06.06-.08.16-.07-.04.05,0,.03,0,.09-.07.01-.15.02-.19.05.04.03.15,0,.11.09-.19,0-.25.1-.41.12.05,0,.05.06.14.04.11-.13.41-.13.46-.3.06.02.11.11.06.15.22.11.53-.01.75.06,0,.08-.1.08-.13.14.2,0-.03.06-.02.11.15-.08.41-.07.61-.11.6.09,1.23.09,1.86.06v-.14s.04.09.05.14c.83-.04,1.66-.12,2.41-.06.39-.07.81-.09,1.08-.12.16-.11.49-.17.63-.11.08-.05.4-.07.57-.08-.04.01.08.03.09.06-.23.01-.4-.02-.44.1-.03,0-.06-.02-.09-.04.02,0,.05,0,.05-.02-.18-.03.04.14-.1.16-.03-.12-.19.03-.17-.13.09-.01.12.05.14-.03-.25,0-.48.04-.61.06.1.08.29-.03.42-.01.03.03.03.08.06.11.15.05.28-.03.36.08-.38.09-.3-.06-.56-.05.02,0,.03.02,0,.02-.18.02-.26,0-.42.04-.06-.03-.26-.17-.25,0,.11-.02.24-.03.28.06.24.03.37-.14.53-.06-.12.01-.21.05-.25.12.12.01.09-.09.22-.07,0,.03-.04.04-.05.07.13-.05.37-.09.42,0-.23.05-.44.06-.61.11,0-.03,0-.08-.03-.04v.04c.25.09.36-.1.53.05-.13-.01-.23.07-.33.01-.04.12-.32.15-.47.13.39.15.68-.13,1.02-.17.03.08-.19.09-.08.16.38-.14.9.05,1.25.03-.33.09-.61.13-.89.1-.09,0,.07.06-.03.07-.23-.07-.68.01-1.02.08,0-.03.03-.04,0-.07-.16.17-.48.05-.66.11.02,0,.05,0,.06.02-.41-.04-.97-.02-1.36.11v-.09c-.43.1-1.06.21-1.55.12,0,.05-.02.07-.08.07h-.06c-.04.1-.09.19-.17.25,0,0,.02,0,.02.02h-.06c-.06.04-.12.07-.2.08.17,0,.44-.07.51.04-.61.05-1.08.03-1.72.03,0,.04.04.06,0,.07-.05-.01-.16.03-.17-.02.03-.06.12.05.11-.05-.14,0-.4.02-.47.04.06,0,.18.06.09.11-.49-.09-1.09,0-1.53,0-.64,0-1.28-.03-1.97-.05v-.04c-.26.11-.49-.03-.69.09-.08-.02-.15-.04-.17-.11-.05.01-.16-.02-.17.03.12-.01.19.02.2.1-.15.01-.56.01-.75-.02-.26.09-.66.03-.88.12.16.06.53-.1.56.12-.18-.05-.31.11-.5.04,0,.08-.05.08-.16.05-.12.18-.55.01-.77.14-.07-.05-.16-.08-.25-.1-.01.07.1.03.03.09.05.01.16-.03.17.02-.6.06-1.03.13-1.55.16.01.21-.3.05-.38.1.13.1-.23.03-.33.03-.25.02-.53.09-.66.13.13.1.28-.05.44,0,0,.05-.02.1-.08.11-.02-.04-.19,0-.16.07.15-.03.23,0,.36.03-.16.07-.37.21-.55.08-.12.1-.32.06-.55.11.05.12-.21.09-.38.1-.13.1,0,.15-.22.18.07.04.13-.03.17.02-.05.11-.1.21-.3.21,0-.03.04-.04.05-.07-.14.02-.3.08-.33.12-.13-.05-.1.01-.19.03-.15.03-.38-.05-.44.08.1.05.24-.04.28.08-.1.06-.18-.05-.19.03.08.06.35-.04.36.08h-.17c0,.07.15.06.06.13.04-.01.14.02.14-.03-.06,0-.09-.02-.09-.06.07,0,.22,0,.33.01-.19.14-.65.15-.88.14-.02.04-.03.09-.08.11.13,0,.26,0,.11-.05.1-.01.13.04.17.08-.2.11-.16-.02-.33.01.1.01.14.05.06.11.25.03.58.06.75.02.1.16.56-.06.62.18.11,0,.04-.13.16-.12.09.03.16.08.25.1.08-.08.24-.05.28.04-.04,0-.02.04-.05.05-.11-.07-.39-.04-.5.02.2,0,.46.04.64-.02-.03,0-.08,0-.08-.02.08,0,.08-.05.16-.05.02.05-.08.07.03.07.04-.02.05-.06.11-.07.18.06.46.09.64.02.26.18.79-.08.84.22.22-.06.45-.07.67.02.05,0,.02-.07.08-.07.23.13.56-.08.83-.03-.01.09-.28-.01-.19.1.39-.1.72.07,1.03.06,0,.05-.12.03-.11.09.09,0,.27.03.39-.01.01.03.04.04.03.09.2-.06.38.03.61.07.04-.05-.07-.08,0-.09h.17s-.03.08.03.09c.24-.05.53,0,.75-.09-.08.09.07.02.08.02v.04c.43.09,1.27-.15,1.47-.03-.05-.05.12-.15.22-.07.02.06-.05.05-.05.09.67-.06,1.41-.03,2.19-.07-.02,0-.05,0-.06-.02.37.02.53.08.83.02.28.03.8-.01.94,0-.03-.01-.16-.04-.09-.06.3.13.56.12.98.1.04.1.34.1.33-.01-.09,0-.14.01-.16.05-.04-.03-.15,0-.11-.09.14,0,.58-.04.36.06.43-.09.56.07.94,0,.08.21.59.02.56.14.1-.06.26-.05.36.03-.24.06-.41.03-.55.08.09,0,.17,0,.2.04.12-.08.24-.07.36-.01,0-.1.11-.02.14,0,.03-.07-.09-.01-.06-.09.18-.04.4-.02.59.05-.05,0-.09.02-.11.05.15-.04.33.08.36-.06-.06-.01-.18.03-.2-.02.2-.04.35-.02.47.03-.04,0-.2,0-.11.03.13.02.17-.03.25-.05.29.15.49.09.78.13.03-.08.2-.06.33-.08,0,.03.02.05.03.07,0,.06-.11.02-.08.09.11,0,.36-.04.53.05.07-.05.4-.11.45.03-.19.03-.36.06-.47.02-.03.08-.57-.02-.52.11-.03-.03-.04-.07-.11-.06-.04.04-.12.07-.19.14,0-.16-.16.08-.2-.06-.09-.02-.06.06-.11.07-.08-.02-.11-.07-.2-.08-.62.19-1.35.01-1.97.09.14.02.32,0,.39.08-.05,0-.14-.06-.17,0,.05.02.14,0,.17.04-.15.04-.25-.07-.31-.03.16,0,0,.08,0,.09.06.04.14-.03.22.06,0-.04-.03-.05-.03-.09.06,0,.06.06.11.06.38-.24.99-.05,1.44-.18.03.11.12.05.11,0,.13.03.15.08.2.13.11-.15.45,0,.61-.11.17.13.56-.04.75-.02-.02,0-.03-.02-.03-.04.1-.01.16-.04.22.02-.06.06-.05-.03-.14-.02.21.15.52.02.81.06.04-.03.11-.05.16-.07.05.06.21.04.33.03.02-.07.06-.11.19-.1-.15-.15-.41-.1-.59-.07.09-.09-.06-.1.05-.16.08.11.46.03.61.04-.04,0-.09-.01-.08-.06.08,0,.24-.07.3,0-.14-.01-.1.08-.19,0,.06.07.12.12.23.15.02-.07-.1-.02-.06-.11.03,0,.03-.02.05-.02.03.04.56.49.93.85-.4-.3-.81-.63-.84-.58,0,.07,1.18,1.11,1.16,1.21.15-.03.31-.08.44-.04-.05-.08,0-.07.11-.07,0-.07-.22-.1-.22-.06h0s.09,0,.1.02c0,.01-.05,0-.1-.02h0s-.06-.03-.08-.05c.16,0,.33.03.39.11.34-.06.6-.13.94-.1,0,.03,0,.08.03.09.02-.05.09-.06.13-.09,0,.08.08,0,.09.04-.04,0-.03.05-.05.07.06,0,.11,0,.14.02.02-.07-.1-.02-.06-.11.04,0,.06,0,.08-.02v.02h.28s-.18.04-.08.09c.02-.07.07.03.14,0,0-.04,0-.07-.05-.08h.22v.05s.07-.03.09-.05h.6-.02,6.01c.06.02.12.03.15,0h1.73s-.06.03-.07.06c.46-.06.75,0,1.28-.04,0,.02-.02.03-.03.05.16-.05.34,0,.52-.06h.05s-.03.03-.04.05c.06-.01.1-.03.14-.05h.17s.09.04.1.08c0-.05.02-.07.08-.07.06.03-.03.06.03.07.11-.02.22-.04.32-.07h.07s-.1.06-.03.09c.17-.12.64.03.81.04-.08-.02.08-.07.11-.03.04-.06-.11-.07-.03-.09.04.09.22.02.25.06.05.08-.09.02-.08.07.11.05.25.08.39.1-.26.1-.78-.05-1.13.13.03.05.12-.02.17-.03.02.15.1,0,.17.06-.06.18-.3,0-.41.06.03,0,.07,0,.06.04-.03,0-.03.02-.05.02-.17,0-.48-.08-.5.04-.14,0-.25-.15-.37-.1.15.04.28.08.34.19,0,.03-.2.02-.11.05.2-.08.28-.07.47-.08-.02-.03-.14,0-.11-.06.08,0,.21-.03.22.04-.08.04.05.11.06.06-.08-.02.02-.08.05-.09,0,.03.07.02.11.02,0,.04,0,.07.03.09.09,0,.13-.03.19-.05.36.11.84-.14,1.19-.08.07-.06.21-.01.2-.07.03.02.19.05.2.02-.02-.04-.13,0-.14-.04,0-.02.03-.04.05-.05.08.06.09.03.17,0,.03.02.06.04.09.06.17-.04.25-.03.41-.06,0,.03,0,.05-.02.07.07-.02.14-.03.19.02-.08.03-.14.07-.19.12.12-.04.32-.02.36-.12l.14-.08h0ZM80.9,37.63c.42.09.48.63.22.78-.13-.04-.27-.07-.4-.11.06-.22.12-.45.18-.67ZM77.14,46.94c-.12.44-.65.18-.84.49-.63-.08-.5-.61-.76-.92.26.28.77.46,1.6.43ZM73.68,44.48c.03-.37.37.45.93.62-.17.12-.34.24-.51.35-.33-.36-.42-.68-.42-.97ZM72.34,27.9c.43-.07-.15.9.37.24.53.34-.16.55-.35.77-.24-.2-.15-.59-.02-1.01ZM70.34,23.07c-.22.27-.59.87-.84.49.38,0,.35-.7.84-.49ZM69.16,32.35c.22.21.75.23.79.78-.31-.08-.62-.17-.93-.25.05-.18.09-.36.14-.54h0ZM64.16,19.94c0-.08.04-.02.07.02-.27-.03-.54-.06-.82-.09.28-.01.53,0,.75.07ZM46.66,19.3s-.17.04-.14-.04c.04.03.12.02.2.02,0,.04.02.06.06.06,0,.05-.07.05-.14.05M31.71,20.56c.02-.08.1-.03.14,0,0,.05-.12.02-.14,0ZM36.28,20.28c-.08,0-.14.01-.16.05-.03,0-.02-.04-.06-.04.04-.01.15-.05.25-.07,0,.02-.03.04-.03.07h0ZM38.73,20.4c.07.05.16-.03.2.02.02.08-.24.07-.2-.02ZM38.39,20.93s.07-.05.08-.09c.04,0,.03.07.11.04,0,.06-.11.04-.19.05ZM29.76,21.92c0-.07.18-.06.22-.03-.04.08-.18.03-.22.03ZM33.73,24.33c-.32-.33.39-.48.68-.39-.1.36-.46.24-.68.39ZM18.08,28.62s0,.04.03.04c-.02.05-.17.03-.19,0,0-.04.08-.03.05-.09.09-.01.1.04.19.02,0,.03-.05.02-.08.02h0ZM19.11,27.92s0-.04-.03-.04c.03-.05.1-.05.19-.05-.01.06-.1.07-.16.09ZM20.49,27.17s.26-.12.25,0c-.11-.02-.11,0-.25,0ZM23.94,29.28s-.16-.02-.19,0c-.11-.03.22-.1.19,0ZM24.77,29.32c-.14-.01-.21.03-.3.05-.03-.04.14-.05.05-.07.02-.03.27-.06.25.01h0ZM27.66,27.3c.05-.18.09-.36.14-.53.39,0,.2.34.46.41-.14.16-.35.17-.6.12ZM30,27.63c-.25-.08.03-.47-.29-.51.07-.14.29-.02.34-.2.34.1.18.58-.04.7h0ZM37.05,30.14c.06-.06.2,0,.28,0-.05.05-.22.02-.28,0ZM40.8,20.72c-.1-.05-.25,0-.36.01.06-.03.29-.14.36-.01ZM40.72,20.83s-.05.08-.14.07c0-.06.09-.11.14-.07ZM40.41,20.88s-.11-.04-.17-.06c.03-.05.21-.03.25,0,0,.05-.13,0-.08.07h0ZM40.41,20.68c-.06.09-.16.02-.28.05.02-.11.22,0,.28-.05ZM39.44,20.85s-.1.01-.14.03c0,.05.1,0,.14.02-.07.07-.13.02-.22,0,.06-.05.13-.08.22-.05ZM38.94,20.84s-.12.09-.16.05c0-.05.1-.1.16-.05ZM39.03,20.93c-.04.09-.27.04-.36.03.12-.01.22-.06.36-.03ZM38.19,25.09c-.02.09-.11.02-.19.03,0-.08.13-.04.19-.03ZM36.79,25.51v.07h-.11c0-.06.04-.07.11-.07ZM32.17,25.92c.18-.17.56-.04.83-.09-.17.14-.61.08-.83.09ZM33.81,29.51c.09-.1.2-.04.36-.08-.07.06-.24.13-.36.08ZM37.03,26.01c-.11-.02-.02-.09-.03-.15.08,0,.07.12.03.15ZM37.2,25.96c-.07,0-.07-.06-.11-.08,0-.03.05-.02.08-.03-.02.06.04.06.03.11ZM37.26,29.74s.18-.08.17.02c-.08.02-.1-.02-.17-.02ZM38.13,29.95c.06,0,.14.04.19,0,.07.02-.21.14-.19,0ZM38.53,30.16c-.07.02-.18,0-.28-.01,0-.09.22-.01.25-.07.1,0-.05.1.03.09h0ZM38.94,25.75c-.07.03-.09.05-.05.11-.1.02-.16,0-.17-.06-.1.11-.28.03-.42,0-.1,0,.06.07-.03.07-.07,0-.03-.02-.03-.04-.1,0-.08.1-.22.07.02-.06.03-.12.02-.2-.06,0,0,.09-.02.13-.12.02-.11-.06-.2-.06.02.04,0,.1-.05.13h0s-.12.05-.17-.04c.09-.02.12.02.17.04h0s-.05-.07,0-.11c-.13.07-.14.01-.28-.01,0,.05-.07.12,0,.2-.09-.03-.2-.05-.28-.08,0-.06.09-.05.16-.05.05,0-.04-.08-.06-.11-.06.01.03.03-.03.07-.07,0-.11-.03-.19-.02-.05-.04,0-.03,0-.09-.17.07-.09.22-.27.21,0,.03.04.04.09.04-.3.2-.76-.05-1,.1-.09-.05-.04-.07-.14-.02-.05-.1.04-.14.13-.19-.03,0-.05-.01-.08-.01.03-.07,0-.06-.03-.11-.09.02.08.13-.02.16-.04-.06-.23.05-.36-.03-.04,0,0,.04.03.04-.04.06-.1-.06-.2-.04.02.02.05.03.08.04-.02.07-.06-.02-.11,0,0,.02.04.02.06.02,0,.06-.14.02-.16.07-.04-.04-.15-.11-.2-.02-.37-.09-.77-.08-1.14-.07v-.07c-.26.09-.51.05-.78.07.19-.17.53-.06.83-.09.16-.02.3-.11.47-.08.03.09-.15.02-.16.07.02.03.07-.01.14.02.27-.24.81-.1,1.22-.13.33-.03.61-.14.86-.12.02.02.06.02.06.06.09-.06.21,0,.33-.01.04.07-.03.06.11.04-.05.04,0,.06,0,.11-.07.02-.06-.04-.09-.06-.04.04-.09.06-.11.11-.06-.01-.07-.07-.11-.09-.06,0-.05.06-.11.07.06.07.25,0,.33.1.18-.1.17-.27.41-.3-.02-.05-.11-.05-.17-.06.2-.12.41,0,.55-.11.04.02.1.02.11.06.08-.02.25-.11.28-.03.05,0,.02-.07.08-.07.19.14.56-.08.75.02.13-.1.47-.09.58-.06.03-.04.08-.06.14-.07l.14.25s-.05-.03-.08-.03c-.14.07-.11.13.03.11-.05,0,0-.03.05-.02v-.03l.1.18c-.13.05-.69.07-.82,0l.03.02h0ZM39.57,29.86c.14-.03,1.35,1.13,1.52,1.16-.14.06-1.37-1.13-1.52-1.16ZM40.86,20.89c-.06.01-.07-.01-.11-.02.05-.02.09-.08-.03-.07.09-.04.27-.02.42-.04-.05.12-.28-.01-.27.12h0ZM42.3,20.82c-.34,0-.57.07-.89-.02.21-.05.5-.03.83-.09-.03-.09-.13.02-.2-.04,0-.07.16-.04.25-.05.06.08-.04.11,0,.2h0ZM42.66,20.66c-.03-.08.13-.03.19-.05-.04.06-.07.03-.19.05ZM42.99,20.71h-.11c0-.06.07-.08.14-.09-.02.02-.03.05-.02.09h0ZM43.7,20.47c-.08.02-.08-.04-.17-.02,0-.02.1-.08.11-.03.03,0,.02-.03.03-.05.08.02.03.03.03.09h0ZM43.81,20.46s.03-.04,0-.04c0-.05.1-.01.14-.03-.02.04-.05.08-.14.07ZM44.98,19.63c-.1-.02-.13.05-.19,0-.04-.09.22-.1.19,0ZM44.53,19.48c.11.02.22.04.2.17-.06-.06-.18-.07-.2-.17ZM44.28,22.53c.29-.63.69.01,1.01-.24.27.64-1.12.88-1.01.24ZM46.38,19.31c-.07.07-.11.02-.19,0,.07-.07.11-.02.19,0ZM46.31,19.68h-.16c.06-.01.11-.02.17-.01h0s0,.01,0,.01ZM47.47,25.2c.29-.58.67-.24.96-.82.69.39-.62,1.53-.96.82ZM48.23,19.68c.06-.04.15,0,.19-.08.14.01.2.06.31,0v.09h-.5ZM49.48,19.66v-.07h.14c0,.07-.09.05-.14.07ZM49.91,20.13c.3-.44.52.1.8-.05.12.52-.97.52-.8.05ZM50.83,19.46s-.02-.04-.06-.04c0-.02.03-.04.03-.07.03,0,.07.04.03.04.02.02.06.02.06.07-.03-.01-.05-.03-.06,0ZM50.94,19.48s-.09-.15.02-.16c.02.09.03.09-.02.16ZM52.11,19.46c.09-.1.02.06.11.04,0,.03-.07.02-.11.03,0-.03,0-.06-.03-.07,0-.03.03-.01.03,0ZM53.26,21.73c.06.26-.17.39-.41.4.33.39-.71,1.01-.87.45.28-.39.52-.13.79-.45-.21-.02-.39-.13-.32-.34.05-.08.11-.12.16-.15-.04,0-.08-.02-.12-.04-.17.31-.78.54-.9.13.3-.41.54-.09.84-.5.03.03.04.06.06.09.25-.22.47-.02.73-.38.3.25-.06.62-.4.7.14.06.28.19.43.1h0ZM54.53,24.23c.3-.41.54-.09.84-.5.47.39-.67,1.08-.84.5ZM55.3,31.55s-.08.05-.16.05c.02-.05.13-.08.16-.05ZM55.23,31.76c-.03-.08.13-.09.11,0h-.11ZM55.81,31.65c-.14,0-.25-.08-.36-.03-.03-.03-.03-.09-.11-.06.15-.11.41,0,.55-.04-.05.03-.07.08-.08.14h0Z" fill="#ce2027"/>
        <path d="M67.85,50.62s.06-.03.08-.05c-.01-.02-.03-.04-.04-.07-.03.03-.06.06-.09.08.02,0,.03.02.04.03h0Z" fill="#ce2027"/>
        <path d="M66.02,51.04c-.21.09-.44.16-.66.24.69.35.86.89,1.36,1.42.04,0,.08,0,.12.02-.28-.48-.53-.98-.7-1.45-.04-.08-.08-.16-.11-.24h-.01Z" fill="#ce2027"/>
        <path d="M74.09,62.63h.01l-.13-.2c.03.08.07.15.11.21h0Z" fill="#ce2027"/>
        <path d="M67.57,76.04h.02-.02Z" fill="#f2f2f2"/>
        <path d="M73.12,60.58s.07-.04.1-.05c-.11-.13-.21-.26-.32-.39-.01,0-.03.02-.04.03.09.14.18.28.26.42h0Z" fill="#ce2027"/>
      </g>
    </g>
  </g>
</svg>